<svg width="3606" height="800" viewBox="0 0 3606 800" fill="none" xmlns="http://www.w3.org/2000/svg">
<rect width="800" height="800" rx="80" fill="#C1836B"/>
<path d="M205.909 716L95 368.95L233.636 274.3V85H344.545V274.3L483.182 368.95L372.273 716H205.909ZM538.636 716C530.78 716 524.195 712.976 518.881 706.929C513.566 700.882 510.909 693.389 510.909 684.45C510.909 675.511 513.566 668.018 518.881 661.971C524.195 655.924 530.78 652.9 538.636 652.9H621.818V589.8H538.636C530.78 589.8 524.195 586.776 518.881 580.729C513.566 574.682 510.909 567.189 510.909 558.25C510.909 549.311 513.566 541.818 518.881 535.771C524.195 529.724 530.78 526.7 538.636 526.7H621.818V463.6H538.636C530.78 463.6 524.195 460.576 518.881 454.529C513.566 448.482 510.909 440.989 510.909 432.05C510.909 423.111 513.566 415.618 518.881 409.571C524.195 403.524 530.78 400.5 538.636 400.5H621.818V337.4H538.636C530.78 337.4 524.195 334.376 518.881 328.329C513.566 322.282 510.909 314.789 510.909 305.85C510.909 296.911 513.566 289.418 518.881 283.371C524.195 277.324 530.78 274.3 538.636 274.3H621.818V211.2H538.636C530.78 211.2 524.195 208.176 518.881 202.129C513.566 196.082 510.909 188.589 510.909 179.65C510.909 170.711 513.566 163.218 518.881 157.171C524.195 151.124 530.78 148.1 538.636 148.1H649.545C664.795 148.1 677.85 154.279 688.71 166.636C699.57 178.993 705 193.847 705 211.2V652.9C705 670.252 699.57 685.107 688.71 697.464C677.85 709.821 664.795 716 649.545 716H538.636ZM244.727 652.9H333.455L415.25 395.768L329.295 337.4H248.886L162.932 395.768L244.727 652.9Z" fill="white"/>
<path d="M1021.4 606C1017 606 1013.4 604.6 1010.6 601.8C1007.8 599 1006.4 595.4 1006.4 591V201C1006.4 196.6 1007.8 193 1010.6 190.2C1013.4 187.4 1017 186 1021.4 186H1199.6C1232.8 186 1260 190.8 1281.2 200.4C1302.4 210 1318 223.6 1328 241.2C1338.4 258.8 1343.6 279.4 1343.6 303C1343.6 317.8 1340.8 330.8 1335.2 342C1330 353.2 1323.4 362.4 1315.4 369.6C1307.8 376.8 1300.4 382.2 1293.2 385.8C1308.8 393 1322.4 405 1334 421.8C1346 438.2 1352 457.8 1352 480.6C1352 505.8 1346.4 527.8 1335.2 546.6C1324 565.4 1307.4 580 1285.4 590.4C1263.4 600.8 1236.6 606 1205 606H1021.4ZM1101.8 535.8H1193.6C1213.2 535.8 1228 530.4 1238 519.6C1248 508.4 1253 495.2 1253 480C1253 464.4 1247.8 451.4 1237.4 441C1227.4 430.2 1212.8 424.8 1193.6 424.8H1101.8V535.8ZM1101.8 355.8H1188.2C1207 355.8 1221 351.2 1230.2 342C1239.8 332.4 1244.6 320.2 1244.6 305.4C1244.6 290.6 1239.8 278.8 1230.2 270C1221 260.8 1207 256.2 1188.2 256.2H1101.8V355.8ZM1556.19 612C1510.19 612 1473.59 599.2 1446.39 573.6C1419.59 548 1405.39 510.8 1403.79 462C1403.79 458.8 1403.79 454.6 1403.79 449.4C1403.79 443.8 1403.79 439.4 1403.79 436.2C1405.39 405.4 1412.39 379 1424.79 357C1437.19 334.6 1454.59 317.6 1476.99 306C1499.39 294 1525.59 288 1555.59 288C1589.19 288 1617.19 295 1639.59 309C1662.39 322.6 1679.39 341.4 1690.59 365.4C1702.19 389 1707.99 416.2 1707.99 447V460.8C1707.99 464.8 1706.39 468.2 1703.19 471C1700.39 473.8 1696.99 475.2 1692.99 475.2H1496.79C1496.79 475.6 1496.79 476.4 1496.79 477.6C1496.79 478.4 1496.79 479.2 1496.79 480C1497.19 492.8 1499.59 504.6 1503.99 515.4C1508.79 525.8 1515.39 534.2 1523.79 540.6C1532.59 547 1542.99 550.2 1554.99 550.2C1564.99 550.2 1573.19 548.8 1579.59 546C1585.99 543.2 1591.19 539.8 1595.19 535.8C1599.59 531.8 1602.79 528.4 1604.79 525.6C1608.39 521.6 1611.19 519.2 1613.19 518.4C1615.59 517.2 1619.19 516.6 1623.99 516.6H1686.39C1690.39 516.6 1693.59 517.8 1695.99 520.2C1698.79 522.2 1699.99 525.2 1699.59 529.2C1699.19 535.6 1695.79 543.6 1689.39 553.2C1683.39 562.4 1674.39 571.6 1662.39 580.8C1650.39 589.6 1635.39 597 1617.39 603C1599.79 609 1579.39 612 1556.19 612ZM1496.79 420.6H1614.39V419.4C1614.39 405 1611.99 392.6 1607.19 382.2C1602.79 371.4 1596.19 363 1587.39 357C1578.59 351 1567.99 348 1555.59 348C1543.19 348 1532.59 351 1523.79 357C1514.99 363 1508.19 371.4 1503.39 382.2C1498.99 392.6 1496.79 405 1496.79 419.4V420.6ZM1859.76 612C1838.56 612 1819.56 608 1802.76 600C1785.96 591.6 1772.56 580.4 1762.56 566.4C1752.56 552.4 1747.56 536.8 1747.56 519.6C1747.56 491.2 1758.96 468.8 1781.76 452.4C1804.96 436 1835.36 424.8 1872.96 418.8L1951.56 407.4V396.6C1951.56 381 1947.96 369 1940.76 360.6C1933.56 352.2 1920.96 348 1902.96 348C1889.76 348 1879.16 350.6 1871.16 355.8C1863.16 361 1856.96 367.8 1852.56 376.2C1849.36 381.4 1844.76 384 1838.76 384H1781.76C1777.36 384 1773.96 382.8 1771.56 380.4C1769.16 377.6 1768.16 374.4 1768.56 370.8C1768.56 364 1771.16 356 1776.36 346.8C1781.56 337.6 1789.56 328.6 1800.36 319.8C1811.16 310.6 1824.96 303 1841.76 297C1858.56 291 1879.16 288 1903.56 288C1928.76 288 1950.36 291 1968.36 297C1986.36 303 2000.76 311.4 2011.56 322.2C2022.36 333 2030.36 345.6 2035.56 360C2040.76 374 2043.36 389.2 2043.36 405.6V591C2043.36 595.4 2041.96 599 2039.16 601.8C2036.36 604.6 2032.76 606 2028.36 606H1969.56C1965.56 606 1962.16 604.6 1959.36 601.8C1956.56 599 1955.16 595.4 1955.16 591V568.8C1949.96 576.4 1942.96 583.6 1934.16 590.4C1925.36 596.8 1914.76 602 1902.36 606C1890.36 610 1876.16 612 1859.76 612ZM1883.76 549.6C1896.96 549.6 1908.76 546.8 1919.16 541.2C1929.56 535.6 1937.76 527 1943.76 515.4C1949.76 503.8 1952.76 489.2 1952.76 471.6V461.4L1896.96 470.4C1875.36 474 1859.56 479.4 1849.56 486.6C1839.56 493.8 1834.56 502.6 1834.56 513C1834.56 520.6 1836.76 527.2 1841.16 532.8C1845.96 538.4 1852.16 542.6 1859.76 545.4C1867.36 548.2 1875.36 549.6 1883.76 549.6ZM2230.61 612C2207.41 612 2186.81 606.8 2168.81 596.4C2151.21 585.6 2137.41 570.2 2127.41 550.2C2117.81 529.8 2113.01 505.2 2113.01 476.4V309C2113.01 304.6 2114.41 301 2117.21 298.2C2120.01 295.4 2123.41 294 2127.41 294H2191.01C2195.41 294 2199.01 295.4 2201.81 298.2C2204.61 301 2206.01 304.6 2206.01 309V472.8C2206.01 517.6 2225.61 540 2264.81 540C2283.61 540 2298.41 534.2 2309.21 522.6C2320.41 510.6 2326.01 494 2326.01 472.8V309C2326.01 304.6 2327.41 301 2330.21 298.2C2333.01 295.4 2336.61 294 2341.01 294H2404.61C2408.61 294 2412.01 295.4 2414.81 298.2C2417.61 301 2419.01 304.6 2419.01 309V591C2419.01 595.4 2417.61 599 2414.81 601.8C2412.01 604.6 2408.61 606 2404.61 606H2345.81C2341.41 606 2337.81 604.6 2335.01 601.8C2332.21 599 2330.81 595.4 2330.81 591V567.6C2320.41 582 2307.01 593 2290.61 600.6C2274.21 608.2 2254.21 612 2230.61 612ZM2644.53 606C2619.73 606 2598.53 602 2580.93 594C2563.33 585.6 2549.93 572.8 2540.73 555.6C2531.93 538.4 2527.53 516.8 2527.53 490.8V364.8H2480.73C2476.33 364.8 2472.73 363.4 2469.93 360.6C2467.13 357.8 2465.73 354.2 2465.73 349.8V309C2465.73 304.6 2467.13 301 2469.93 298.2C2472.73 295.4 2476.33 294 2480.73 294H2527.53V195C2527.53 190.6 2528.93 187 2531.73 184.2C2534.93 181.4 2538.53 180 2542.53 180H2601.33C2605.73 180 2609.33 181.4 2612.13 184.2C2614.93 187 2616.33 190.6 2616.33 195V294H2691.33C2695.33 294 2698.73 295.4 2701.53 298.2C2704.33 301 2705.73 304.6 2705.73 309V349.8C2705.73 354.2 2704.33 357.8 2701.53 360.6C2698.73 363.4 2695.33 364.8 2691.33 364.8H2616.33V483.6C2616.33 498.8 2618.93 510.8 2624.13 519.6C2629.73 528 2639.33 532.2 2652.93 532.2H2696.73C2700.73 532.2 2704.13 533.6 2706.93 536.4C2709.73 539.2 2711.13 542.6 2711.13 546.6V591C2711.13 595.4 2709.73 599 2706.93 601.8C2704.13 604.6 2700.73 606 2696.73 606H2644.53ZM2777.87 606C2773.87 606 2770.47 604.6 2767.67 601.8C2764.87 599 2763.47 595.4 2763.47 591V309C2763.47 304.6 2764.87 301 2767.67 298.2C2770.47 295.4 2773.87 294 2777.87 294H2837.87C2842.27 294 2845.87 295.4 2848.67 298.2C2851.47 301 2852.87 304.6 2852.87 309V591C2852.87 595.4 2851.47 599 2848.67 601.8C2845.87 604.6 2842.27 606 2837.87 606H2777.87ZM2776.07 246C2772.07 246 2768.67 244.6 2765.87 241.8C2763.07 239 2761.67 235.4 2761.67 231V183C2761.67 178.6 2763.07 175 2765.87 172.2C2768.67 169 2772.07 167.4 2776.07 167.4H2839.07C2843.47 167.4 2847.07 169 2849.87 172.2C2853.07 175 2854.67 178.6 2854.67 183V231C2854.67 235.4 2853.07 239 2849.87 241.8C2847.07 244.6 2843.47 246 2839.07 246H2776.07ZM2977.32 606C2972.92 606 2969.32 604.6 2966.52 601.8C2963.72 599 2962.32 595.4 2962.32 591V364.8H2915.52C2911.12 364.8 2907.52 363.4 2904.72 360.6C2901.92 357.8 2900.52 354.2 2900.52 349.8V309C2900.52 304.6 2901.92 301 2904.72 298.2C2907.52 295.4 2911.12 294 2915.52 294H2962.32V272.4C2962.32 246.8 2967.12 225.8 2976.72 209.4C2986.32 193 3000.32 181 3018.72 173.4C3037.12 165.8 3059.72 162 3086.52 162H3130.32C3134.72 162 3138.32 163.4 3141.12 166.2C3143.92 169 3145.32 172.6 3145.32 177V217.8C3145.32 222.2 3143.92 225.8 3141.12 228.6C3138.32 231.4 3134.72 232.8 3130.32 232.8H3090.12C3075.32 232.8 3064.92 236.4 3058.92 243.6C3053.32 250.8 3050.52 261.4 3050.52 275.4V294H3124.32C3128.72 294 3132.32 295.4 3135.12 298.2C3137.92 301 3139.32 304.6 3139.32 309V349.8C3139.32 354.2 3137.92 357.8 3135.12 360.6C3132.32 363.4 3128.72 364.8 3124.32 364.8H3050.52V591C3050.52 595.4 3049.12 599 3046.32 601.8C3043.52 604.6 3040.12 606 3036.12 606H2977.32ZM3241.76 720C3238.56 720 3235.56 718.8 3232.76 716.4C3230.36 714 3229.16 711 3229.16 707.4C3229.16 706.6 3229.36 705.4 3229.76 703.8C3230.16 702.6 3230.76 701 3231.56 699L3278.36 586.8L3163.16 315C3161.96 311.8 3161.36 309.2 3161.36 307.2C3161.76 303.6 3163.16 300.6 3165.56 298.2C3167.96 295.4 3170.96 294 3174.56 294H3232.76C3237.96 294 3241.76 295.4 3244.16 298.2C3246.56 300.6 3248.36 303.2 3249.56 306L3323.96 492L3400.16 306C3401.76 302.8 3403.76 300 3406.16 297.6C3408.56 295.2 3412.36 294 3417.56 294H3474.56C3478.16 294 3481.16 295.4 3483.56 298.2C3486.36 300.6 3487.76 303.4 3487.76 306.6C3487.76 308.6 3486.96 311.4 3485.36 315L3315.56 708C3314.36 711.2 3312.36 714 3309.56 716.4C3307.16 718.8 3303.36 720 3298.16 720H3241.76Z" fill="#C1836B"/>
</svg>
